<svg xmlns="http://www.w3.org/2000/svg" viewBox="0 0 29.47 29.47"><defs><style>.cls-1{fill:#132732;}.cls-2{fill:#ee5764;}</style></defs><title>Pad bepalen</title><g id="Layer_2" data-name="Layer 2"><g id="Layer_2-2" data-name="Layer 2"><path class="cls-1" d="M5.45,6a3,3,0,1,1,3-3A3,3,0,0,1,5.45,6ZM5.45,1a2,2,0,1,0,2,2A2,2,0,0,0,5.45,1Z"/><path class="cls-1" d="M7.93,29.47H3a.5.5,0,0,1-.5-.47l-.7-9.35a1.72,1.72,0,0,1-1.29-.59A2,2,0,0,1,0,17.51l.82-7.18a3.16,3.16,0,0,1,3-2.9H7a3.16,3.16,0,0,1,3,2.9l.82,7.18a2,2,0,0,1-.48,1.55,1.72,1.72,0,0,1-1.29.59h0L8.43,29A.51.51,0,0,1,7.93,29.47Zm-4.49-1h4l.69-9.36a.5.5,0,0,1,.5-.46h.47a.7.7,0,0,0,.54-.26,1,1,0,0,0,.24-.76l-.83-7.19a2.15,2.15,0,0,0-2-2H3.87a2.15,2.15,0,0,0-2,2L1,17.63a.94.94,0,0,0,.23.76.7.7,0,0,0,.54.26h.47a.5.5,0,0,1,.5.46Z"/><path class="cls-1" d="M24,8.43a3,3,0,1,1,3-3A3,3,0,0,1,24,8.43Zm0-5a2,2,0,1,0,2,2A2,2,0,0,0,24,3.47Z"/><path class="cls-1" d="M24,17.09h0a.48.48,0,0,1-.43-.25c-.21-.34-5-8.55-5-11.39a5.45,5.45,0,0,1,10.9,0c0,2.84-4.82,11.05-5,11.39A.5.5,0,0,1,24,17.09ZM24,1a4.45,4.45,0,0,0-4.45,4.45c0,1.93,2.89,7.42,4.45,10.14,1.55-2.72,4.45-8.21,4.45-10.14A4.46,4.46,0,0,0,24,1Z"/><polygon class="cls-2" points="10.88 29.01 10.02 28.17 10.92 27.27 11.72 28.16 10.88 29.01"/><path class="cls-2" d="M12.47,27.07l-1.08-.53.27-.54.54.27L11.66,26l.19-.57,1.11.44-.23.67Zm.9-2.27-1.14-.37.38-1.15,1.14.38Zm.69-2.16L13,22.2l.23-.67.26-.53,1.08.53-.27.54Zm.79-2.07-.93-.75.3-.48.34-.53,1,.71-.36.53Zm1.5-1.66-.65-1,.93-.61.64,1Zm.09-.8ZM18.13,18l-.29-1.16.69-.21.6-.09.17,1.19-.6.08Z"/><polygon class="cls-2" points="21.55 17.6 20.75 17.57 20.4 17.54 20.4 16.33 21.05 16.3 21.55 16.4 21.55 17.6"/></g></g></svg>