<svg xmlns="http://www.w3.org/2000/svg" viewBox="0 0 29.35 31.15"><defs><style>.cls-1{fill:#132732;}.cls-2{fill:#ee5764;}</style></defs><title>Samen_2</title><g id="Layer_2" data-name="Layer 2"><g id="Layer_2-2" data-name="Layer 2"><path class="cls-1" d="M5.54,7.52A3.11,3.11,0,1,1,8.65,4.41,3.11,3.11,0,0,1,5.54,7.52Zm0-5.22A2.11,2.11,0,1,0,7.65,4.41,2.12,2.12,0,0,0,5.54,2.3Z"/><path class="cls-1" d="M23.81,7.52a3.11,3.11,0,1,1,3.1-3.11A3.11,3.11,0,0,1,23.81,7.52Zm0-5.22a2.11,2.11,0,1,0,2.1,2.11A2.11,2.11,0,0,0,23.81,2.3Z"/><path class="cls-1" d="M11.83,29a.5.5,0,0,1-.49-.46l-.65-7.86A1.74,1.74,0,0,1,9.36,20a2,2,0,0,1-.5-1.61l.86-7.57a3.31,3.31,0,0,1,3.18-3h3.33a3.29,3.29,0,0,1,3.17,3l.87,7.57a2.11,2.11,0,0,1-.5,1.61,1.76,1.76,0,0,1-1.34.61h0l-.61,7.79a.5.5,0,1,1-1-.08l.64-8.25a.49.49,0,0,1,.49-.46h.5a.81.81,0,0,0,.59-.27,1,1,0,0,0,.25-.83L18.41,11a2.3,2.3,0,0,0-2.18-2.14H12.9A2.29,2.29,0,0,0,10.72,11l-.87,7.58a1.1,1.1,0,0,0,.25.83.81.81,0,0,0,.59.27h.5a.5.5,0,0,1,.5.46l.64,8.32a.5.5,0,0,1-.46.54Z"/><path class="cls-1" d="M14.56,6.22a3.11,3.11,0,1,1,3.11-3.11A3.12,3.12,0,0,1,14.56,6.22Zm0-5.22a2.11,2.11,0,1,0,2.11,2.11A2.12,2.12,0,0,0,14.56,1Z"/><path class="cls-1" d="M8.15,29.7H2.93a.49.49,0,0,1-.49-.47L1.8,20.56a1.81,1.81,0,0,1-1.79-2l.84-6.69A3.11,3.11,0,0,1,3.93,9.13H7.15a3.33,3.33,0,0,1,.79.11.5.5,0,0,1,.36.61.51.51,0,0,1-.62.36,1.8,1.8,0,0,0-.53-.08H3.93A2.11,2.11,0,0,0,1.84,12L1,18.66a.8.8,0,0,0,.19.63.78.78,0,0,0,.6.27h.48a.5.5,0,0,1,.5.47L3.4,28.7H7.69l.47-6.57a.51.51,0,0,1,.53-.46.49.49,0,0,1,.46.53l-.5,7A.5.5,0,0,1,8.15,29.7Z"/><path class="cls-1" d="M26.41,29.7H21.2a.5.5,0,0,1-.5-.47l-.52-7.17a.5.5,0,1,1,1-.07l.48,6.71H26L26.57,20a.5.5,0,0,1,.5-.47h.47a.79.79,0,0,0,.8-.9L27.51,12a2.11,2.11,0,0,0-2.1-1.85H22.19a2,2,0,0,0-.7.13.5.5,0,0,1-.33-.95,3.1,3.1,0,0,1,1-.18h3.22a3.11,3.11,0,0,1,3.09,2.72l.84,6.69a1.79,1.79,0,0,1-1.8,2h0l-.62,8.67A.5.5,0,0,1,26.41,29.7Z"/><rect class="cls-2" x="11.45" y="29.88" width="1.27" height="1.27" transform="translate(-18.42 42.6) rotate(-90)"/><rect class="cls-2" x="13.89" y="29.88" width="1.27" height="1.27" transform="translate(-15.99 45.04) rotate(-90)"/><rect class="cls-2" x="16.33" y="29.88" width="1.27" height="1.27" transform="translate(-13.55 47.47) rotate(-90)"/></g></g></svg>