<svg xmlns="http://www.w3.org/2000/svg" viewBox="0 0 31.7 22.62"><defs><style>.cls-1{fill:#132732;}.cls-2{fill:#ee5764;}</style></defs><title>Programmeren</title><g id="Layer_2" data-name="Layer 2"><g id="Layer_2-2" data-name="Layer 2"><path class="cls-1" d="M9.11,17.31a.43.43,0,0,1-.27-.08L.23,11.71A.49.49,0,0,1,0,11.3a.5.5,0,0,1,.22-.42L8.82,5a.5.5,0,1,1,.57.82l-8,5.49,8,5.11a.5.5,0,0,1,.15.69A.51.51,0,0,1,9.11,17.31Z"/><path class="cls-1" d="M22.59,17.31a.51.51,0,0,1-.42-.23.5.5,0,0,1,.15-.69l8-5.11-8-5.49A.5.5,0,1,1,22.88,5l8.6,5.91a.5.5,0,0,1,.22.42.49.49,0,0,1-.23.41l-8.61,5.52A.43.43,0,0,1,22.59,17.31Z"/><rect class="cls-2" x="18.14" y="0.15" width="1.27" height="1.27" transform="matrix(0.96, 0.28, -0.28, 0.96, 0.99, -5.27)"/><rect class="cls-2" x="17.45" y="2.49" width="1.27" height="1.27" transform="translate(1.62 -4.98) rotate(16.41)"/><rect class="cls-2" x="16.76" y="4.83" width="1.27" height="1.27" transform="translate(2.25 -4.69) rotate(16.41)"/><rect class="cls-2" x="16.07" y="7.17" width="1.27" height="1.27" transform="translate(2.89 -4.4) rotate(16.41)"/><rect class="cls-2" x="15.38" y="9.51" width="1.27" height="1.27" transform="translate(3.52 -4.11) rotate(16.41)"/><rect class="cls-2" x="14.69" y="11.85" width="1.27" height="1.27" transform="matrix(0.96, 0.28, -0.28, 0.96, 4.15, -3.82)"/><rect class="cls-2" x="14" y="14.18" width="1.27" height="1.27" transform="translate(4.78 -3.53) rotate(16.41)"/><rect class="cls-2" x="13.31" y="16.52" width="1.27" height="1.27" transform="matrix(0.96, 0.28, -0.28, 0.96, 5.42, -3.24)"/><rect class="cls-2" x="12.63" y="18.86" width="1.27" height="1.27" transform="matrix(0.96, 0.28, -0.28, 0.96, 6.05, -2.95)"/><rect class="cls-2" x="11.94" y="21.2" width="1.27" height="1.27" transform="matrix(0.96, 0.28, -0.28, 0.96, 6.68, -2.66)"/></g></g></svg>